<svg xmlns="http://www.w3.org/2000/svg" width="1400" height="800" viewBox="0 0 1400 800" role="img" aria-labelledby="title description">
  <title id="title">neural.slang UTracer architecture</title>
  <desc id="description">Training uses a ceramic MDL teacher, compact GPU tensors, an encoder-decoder network, reverse-mode differentiation, and a baked latent texture. Inference uses ray-hit UVs, bilinear latent lookup, and the decoder inside a path tracer. Both stages share FFLayer, IVector, LinearLayout, and PointerAddress storage.</desc>

  <defs>
    <marker id="arrow" viewBox="0 0 10 10" refX="9" refY="5" markerWidth="8" markerHeight="8" orient="auto-start-reverse">
      <path d="M 0 0 L 10 5 L 0 10 z" fill="#475569"/>
    </marker>
    <style>
      text { font-family: Inter, ui-sans-serif, system-ui, -apple-system, BlinkMacSystemFont, "Segoe UI", sans-serif; fill: #172033; }
      .title { font-size: 30px; font-weight: 700; }
      .lane-title { font-size: 18px; font-weight: 700; fill: #ffffff; letter-spacing: 0.04em; }
      .box-title { font-size: 18px; font-weight: 700; }
      .box-text { font-size: 15px; fill: #475569; }
      .small { font-size: 13px; fill: #64748b; }
      .code { font-family: "SFMono-Regular", Consolas, "Liberation Mono", monospace; font-size: 14px; fill: #334155; }
      .connector { fill: none; stroke: #475569; stroke-width: 2.5; marker-end: url(#arrow); }
      .dashed { stroke-dasharray: 7 6; }
    </style>
  </defs>

  <rect width="1400" height="800" rx="20" fill="#f8fafc"/>
  <text class="title" x="700" y="48" text-anchor="middle">neural.slang UTracer</text>

  <!-- Training lane -->
  <rect x="30" y="75" width="1340" height="370" rx="18" fill="#eff6ff" stroke="#bfdbfe" stroke-width="2"/>
  <rect x="55" y="96" width="128" height="36" rx="18" fill="#2563eb"/>
  <text class="lane-title" x="119" y="120" text-anchor="middle">TRAINING</text>

  <rect x="70" y="165" width="220" height="125" rx="14" fill="#ffffff" stroke="#60a5fa" stroke-width="2"/>
  <text class="box-title" x="180" y="195" text-anchor="middle">Ceramic MDL teacher</text>
  <text class="box-text" x="180" y="225" text-anchor="middle">29 material features</text>
  <text class="box-text" x="180" y="248" text-anchor="middle">directions (wi, wo)</text>
  <text class="box-text" x="180" y="271" text-anchor="middle">reference BSDF</text>

  <path class="connector" d="M 290 228 H 335"/>

  <rect x="345" y="165" width="230" height="125" rx="14" fill="#ffffff" stroke="#60a5fa" stroke-width="2"/>
  <text class="box-title code" x="460" y="201" text-anchor="middle">prepareTrainingSample</text>
  <text class="box-text" x="460" y="234" text-anchor="middle">compact GPU tensors</text>
  <text class="small" x="460" y="260" text-anchor="middle">teacher stays outside</text>
  <text class="small" x="460" y="279" text-anchor="middle">the reverse-mode tape</text>

  <path class="connector" d="M 575 228 H 620"/>
  <text class="small" x="598" y="216" text-anchor="middle">batch</text>

  <rect x="630" y="140" width="410" height="175" rx="16" fill="#dbeafe" stroke="#3b82f6" stroke-width="2.5"/>
  <text class="box-title" x="835" y="170" text-anchor="middle">Network</text>

  <rect x="655" y="187" width="170" height="98" rx="12" fill="#ffffff" stroke="#93c5fd" stroke-width="2"/>
  <text class="box-title" x="740" y="218" text-anchor="middle">Encoder</text>
  <text class="code" x="740" y="246" text-anchor="middle">29 → 64 → 64</text>
  <text class="code" x="740" y="268" text-anchor="middle">→ 64 → 8</text>

  <path class="connector" d="M 825 236 H 847"/>
  <text class="small" x="836" y="226" text-anchor="middle">latent</text>

  <rect x="855" y="187" width="160" height="98" rx="12" fill="#ffffff" stroke="#93c5fd" stroke-width="2"/>
  <text class="box-title" x="935" y="218" text-anchor="middle">Decoder</text>
  <text class="code" x="935" y="246" text-anchor="middle">14 → 32 → 32</text>
  <text class="code" x="935" y="268" text-anchor="middle">→ 3</text>

  <path class="connector" d="M 1040 228 H 1080"/>
  <text class="small" x="1060" y="216" text-anchor="middle">prediction</text>

  <rect x="1090" y="165" width="230" height="125" rx="14" fill="#ffffff" stroke="#60a5fa" stroke-width="2"/>
  <text class="box-title" x="1205" y="205" text-anchor="middle">Loss + bwd_diff</text>
  <text class="box-text" x="1205" y="238" text-anchor="middle">compare reference BSDF</text>
  <text class="box-text" x="1205" y="263" text-anchor="middle">update neural parameters</text>

  <rect x="610" y="350" width="350" height="70" rx="14" fill="#ffffff" stroke="#38bdf8" stroke-width="2"/>
  <text class="box-title" x="785" y="379" text-anchor="middle">Baked latent texture</text>
  <text class="code" x="785" y="404" text-anchor="middle">Encoder(UV grid) → H × W × 8</text>
  <path class="connector" d="M 740 285 V 337 H 785 V 348"/>

  <rect x="1040" y="350" width="290" height="70" rx="14" fill="#ffffff" stroke="#38bdf8" stroke-width="2"/>
  <text class="box-title code" x="1185" y="379" text-anchor="middle">PointerAddress&lt;float&gt;</text>
  <text class="box-text" x="1185" y="404" text-anchor="middle">flat row-major parameters</text>
  <path class="connector" d="M 1205 290 V 348"/>
  <path class="connector dashed" d="M 1040 385 H 1018 V 305"/>

  <!-- Inference lane -->
  <rect x="30" y="465" width="1340" height="305" rx="18" fill="#ecfdf5" stroke="#a7f3d0" stroke-width="2"/>
  <rect x="55" y="486" width="138" height="36" rx="18" fill="#059669"/>
  <text class="lane-title" x="124" y="510" text-anchor="middle">INFERENCE</text>

  <rect x="70" y="555" width="180" height="105" rx="14" fill="#ffffff" stroke="#34d399" stroke-width="2"/>
  <text class="box-title" x="160" y="590" text-anchor="middle">Ray hit</text>
  <text class="box-text" x="160" y="620" text-anchor="middle">UV, wi, geometry</text>
  <text class="small" x="160" y="643" text-anchor="middle">ray query</text>

  <path class="connector" d="M 250 608 H 305"/>

  <rect x="315" y="555" width="220" height="105" rx="14" fill="#ffffff" stroke="#34d399" stroke-width="2"/>
  <text class="box-title" x="425" y="590" text-anchor="middle">Latent lookup</text>
  <text class="box-text" x="425" y="620" text-anchor="middle">bilinear H × W × 8</text>
  <text class="small" x="425" y="643" text-anchor="middle">baked encoder output</text>
  <path class="connector dashed" d="M 785 420 V 525 H 425 V 553"/>

  <path class="connector" d="M 535 608 H 590"/>

  <rect x="600" y="535" width="250" height="145" rx="16" fill="#d1fae5" stroke="#10b981" stroke-width="2.5"/>
  <text class="box-title" x="725" y="570" text-anchor="middle">Decoder</text>
  <text class="code" x="725" y="601" text-anchor="middle">latent + (wi, wo)</text>
  <text class="box-text" x="725" y="630" text-anchor="middle">FFLayer forward pass</text>
  <text class="small" x="725" y="655" text-anchor="middle">ExpActivation output</text>
  <path class="connector dashed" d="M 1185 420 V 500 H 725 V 533"/>

  <path class="connector" d="M 850 608 H 905"/>

  <rect x="915" y="555" width="170" height="105" rx="14" fill="#ffffff" stroke="#34d399" stroke-width="2"/>
  <text class="box-title" x="1000" y="590" text-anchor="middle">Neural BSDF</text>
  <text class="box-text" x="1000" y="620" text-anchor="middle">RGB estimate</text>
  <text class="small" x="1000" y="643" text-anchor="middle">per surface hit</text>

  <path class="connector" d="M 1085 608 H 1135"/>

  <rect x="1145" y="535" width="195" height="145" rx="14" fill="#ffffff" stroke="#34d399" stroke-width="2"/>
  <text class="box-title" x="1242" y="570" text-anchor="middle">Path tracer</text>
  <text class="box-text" x="1242" y="600" text-anchor="middle">path throughput</text>
  <text class="box-text" x="1242" y="625" text-anchor="middle">next ray</text>
  <text class="box-text" x="1242" y="650" text-anchor="middle">frame accumulation</text>

  <rect x="250" y="710" width="900" height="40" rx="20" fill="#ffffff" stroke="#94a3b8" stroke-width="1.5"/>
  <text class="box-text" x="700" y="736" text-anchor="middle">
    Shared neural implementation: FFLayer + LinearLayout · IVector&lt;float&gt; → InlineVector or WaveTangledVector
  </text>
</svg>
